<svg width="817" height="817" viewBox="0 0 817 817" fill="none" xmlns="http://www.w3.org/2000/svg">
<mask id="mask0_101_1412" style="mask-type:luminance" maskUnits="userSpaceOnUse" x="16" y="16" width="784" height="784">
<path d="M16.9316 16.9326H799.884V799.887H16.9316V16.9326Z" fill="white"/>
</mask>
<g mask="url(#mask0_101_1412)">
<path d="M134.374 16.9326H682.442C684.363 16.9326 686.284 16.9794 688.205 17.073C690.124 17.1666 692.04 17.3091 693.953 17.4963C695.867 17.6857 697.773 17.9218 699.675 18.2026C701.577 18.4855 703.47 18.8131 705.354 19.1875C707.239 19.564 709.113 19.9852 710.979 20.451C712.842 20.919 714.695 21.4317 716.533 21.989C718.373 22.5464 720.198 23.1484 722.006 23.7972C723.817 24.4438 725.61 25.1352 727.386 25.8712C729.16 26.6072 730.917 27.3858 732.655 28.2069C734.393 29.0301 736.11 29.8938 737.803 30.8C739.499 31.7062 741.171 32.6528 742.819 33.6398C744.468 34.629 746.091 35.6564 747.69 36.7243C749.288 37.7922 750.858 38.8983 752.402 40.0428C753.947 41.1893 755.461 42.37 756.946 43.591C758.433 44.8099 759.888 46.0649 761.311 47.3562C762.736 48.6453 764.128 49.9705 765.487 51.3298C766.846 52.6891 768.171 54.0803 769.461 55.5056C770.752 56.9287 772.007 58.3837 773.226 59.8706C774.447 61.3554 775.627 62.87 776.774 64.4144C777.918 65.9587 779.024 67.5286 780.092 69.1262C781.16 70.7258 782.188 72.3489 783.177 73.9975C784.164 75.6461 785.11 77.3181 786.017 79.0135C786.923 80.7068 787.786 82.4235 788.61 84.1614C789.431 85.8993 790.209 87.6564 790.945 89.4305C791.681 91.2068 792.373 93 793.019 94.8103C793.666 96.6184 794.27 98.4436 794.828 100.284C795.385 102.122 795.898 103.974 796.366 105.838C796.831 107.703 797.253 109.577 797.629 111.462C798.004 113.347 798.331 115.24 798.614 117.142C798.895 119.044 799.131 120.95 799.32 122.864C799.508 124.776 799.65 126.693 799.744 128.612C799.837 130.533 799.884 132.454 799.884 134.375V682.443C799.884 684.364 799.837 686.285 799.744 688.206C799.65 690.124 799.508 692.041 799.32 693.953C799.131 695.868 798.895 697.774 798.614 699.676C798.331 701.577 798.004 703.471 797.629 705.355C797.253 707.24 796.831 709.114 796.366 710.98C795.898 712.843 795.385 714.696 794.828 716.534C794.27 718.374 793.666 720.199 793.019 722.007C792.373 723.818 791.681 725.611 790.945 727.387C790.209 729.161 789.431 730.918 788.61 732.656C787.786 734.394 786.923 736.111 786.017 737.806C785.11 739.499 784.164 741.171 783.177 742.82C782.188 744.469 781.16 746.092 780.092 747.691C779.024 749.289 777.918 750.859 776.774 752.403C775.627 753.948 774.447 755.462 773.226 756.947C772.007 758.434 770.752 759.889 769.461 761.312C768.171 762.737 766.846 764.128 765.487 765.488C764.128 766.847 762.736 768.172 761.311 769.461C759.888 770.753 758.433 772.008 756.946 773.227C755.461 774.448 753.947 775.628 752.402 776.775C750.858 777.919 749.288 779.025 747.69 780.093C746.091 781.161 744.468 782.189 742.819 783.178C741.171 784.165 739.499 785.111 737.803 786.018C736.11 786.924 734.393 787.787 732.655 788.611C730.917 789.432 729.16 790.21 727.386 790.946C725.61 791.682 723.817 792.374 722.006 793.02C720.198 793.669 718.373 794.271 716.533 794.829C714.695 795.386 712.842 795.898 710.979 796.367C709.113 796.832 707.239 797.254 705.354 797.63C703.47 798.004 701.577 798.332 699.675 798.615C697.773 798.896 695.867 799.132 693.953 799.321C692.04 799.508 690.124 799.651 688.205 799.745C686.284 799.838 684.363 799.887 682.442 799.887H134.374C132.453 799.887 130.532 799.838 128.611 799.745C126.692 799.651 124.776 799.508 122.863 799.321C120.949 799.132 119.043 798.896 117.141 798.615C115.239 798.332 113.346 798.004 111.461 797.63C109.576 797.254 107.702 796.832 105.837 796.367C103.973 795.898 102.121 795.386 100.283 794.829C98.4426 794.271 96.6174 793.669 94.8093 793.02C92.999 792.374 91.2058 791.682 89.4296 790.946C87.6555 790.21 85.8984 789.432 84.1604 788.611C82.4225 787.787 80.7058 786.924 79.0104 786.018C77.3171 785.111 75.6451 784.165 73.9965 783.178C72.3479 782.189 70.7249 781.161 69.1252 780.093C67.5277 779.025 65.9578 777.919 64.4134 776.775C62.869 775.628 61.3545 774.448 59.8675 773.227C58.3827 772.008 56.9277 770.753 55.5046 769.461C54.0794 768.172 52.6881 766.847 51.3288 765.488C49.9696 764.128 48.6443 762.737 47.3531 761.312C46.064 759.889 44.8089 758.434 43.59 756.947C42.369 755.462 41.1884 753.948 40.0418 752.403C38.8974 750.859 37.7912 749.289 36.7233 747.691C35.6555 746.092 34.628 744.469 33.6389 742.82C32.6518 741.171 31.7052 739.499 30.799 737.806C29.8928 736.111 29.0292 734.394 28.2059 732.656C27.3848 730.918 26.6063 729.161 25.8702 727.387C25.1342 725.611 24.4429 723.818 23.7962 722.007C23.1474 720.199 22.5454 718.374 21.9881 716.534C21.4307 714.696 20.9181 712.843 20.4501 710.98C19.9842 709.114 19.563 707.24 19.1865 705.355C18.8121 703.471 18.4845 701.577 18.2016 699.676C17.9187 697.774 17.6847 695.868 17.4954 693.953C17.3082 692.041 17.1656 690.124 17.072 688.206C16.9784 686.285 16.9316 684.364 16.9316 682.443V134.375C16.9316 132.454 16.9784 130.533 17.072 128.612C17.1656 126.693 17.3082 124.776 17.4954 122.864C17.6847 120.95 17.9187 119.044 18.2016 117.142C18.4845 115.24 18.8121 113.347 19.1865 111.462C19.563 109.577 19.9842 107.703 20.4501 105.838C20.9181 103.974 21.4307 102.122 21.9881 100.284C22.5454 98.4436 23.1474 96.6184 23.7962 94.8103C24.4429 93 25.1342 91.2068 25.8702 89.4305C26.6063 87.6564 27.3848 85.8993 28.2059 84.1614C29.0292 82.4235 29.8928 80.7068 30.799 79.0135C31.7052 77.3181 32.6518 75.6461 33.6389 73.9975C34.628 72.3489 35.6555 70.7258 36.7233 69.1262C37.7912 67.5286 38.8974 65.9587 40.0418 64.4144C41.1884 62.87 42.369 61.3554 43.59 59.8706C44.8089 58.3837 46.064 56.9287 47.3531 55.5056C48.6443 54.0803 49.9696 52.6891 51.3288 51.3298C52.6881 49.9705 54.0794 48.6453 55.5046 47.3562C56.9277 46.0649 58.3827 44.8099 59.8675 43.591C61.3545 42.37 62.869 41.1893 64.4134 40.0428C65.9578 38.8983 67.5277 37.7922 69.1252 36.7243C70.7249 35.6564 72.3479 34.629 73.9965 33.6398C75.6451 32.6528 77.3171 31.7062 79.0104 30.8C80.7058 29.8938 82.4225 29.0301 84.1604 28.2069C85.8984 27.3858 87.6555 26.6072 89.4296 25.8712C91.2058 25.1352 92.999 24.4438 94.8093 23.7972C96.6174 23.1484 98.4426 22.5464 100.283 21.989C102.121 21.4317 103.973 20.919 105.837 20.451C107.702 19.9852 109.576 19.564 111.461 19.1875C113.346 18.8131 115.239 18.4855 117.141 18.2026C119.043 17.9218 120.949 17.6857 122.863 17.4963C124.776 17.3091 126.692 17.1666 128.611 17.073C130.532 16.9794 132.453 16.9326 134.374 16.9326Z" fill="white"/>
</g>
<path d="M607.205 628.616C676.021 564.389 706.604 457.345 688.254 354.887H414.525V468.049H570.504C564.388 504.75 542.978 535.333 512.395 555.214L607.205 628.616Z" fill="#4285F4"/>
<path d="M154.56 538.392C157.065 543.325 159.707 548.184 162.486 552.968C165.266 557.754 168.178 562.455 171.222 567.075C174.268 571.694 177.44 576.225 180.741 580.664C184.043 585.106 187.466 589.447 191.014 593.695C194.56 597.941 198.223 602.085 202.005 606.125C205.785 610.164 209.678 614.093 213.682 617.914C217.685 621.732 221.793 625.436 226.005 629.024C230.216 632.611 234.526 636.076 238.936 639.42C243.344 642.764 247.843 645.98 252.433 649.069C257.024 652.158 261.697 655.115 266.456 657.94C271.212 660.765 276.045 663.454 280.955 666.006C285.865 668.557 290.842 670.969 295.888 673.239C300.934 675.508 306.039 677.636 311.206 679.616C316.371 681.599 321.589 683.432 326.858 685.119C332.127 686.806 337.441 688.344 342.798 689.729C348.154 691.116 353.544 692.35 358.971 693.432C364.397 694.513 369.85 695.441 375.329 696.215C380.807 696.987 386.304 697.606 391.817 698.068C397.331 698.529 402.853 698.838 408.384 698.987C413.915 699.138 419.446 699.131 424.977 698.97C430.507 698.808 436.027 698.489 441.541 698.015C447.053 697.54 452.547 696.91 458.025 696.126C463.503 695.341 468.953 694.4 474.377 693.307C479.801 692.214 485.19 690.969 490.542 689.572C495.896 688.174 501.206 686.625 506.473 684.928C511.737 683.23 516.951 681.384 522.114 679.391C527.275 677.397 532.376 675.262 537.417 672.979C542.459 670.699 547.43 668.278 552.333 665.715C557.239 663.154 562.065 660.454 566.818 657.619C571.568 654.783 576.235 651.815 580.819 648.718C585.403 645.619 589.896 642.392 594.297 639.039C598.698 635.687 603.002 632.211 607.205 628.616L512.395 555.214C431.348 608.735 296.777 588.856 250.899 463.46L154.56 538.392Z" fill="#34A853"/>
<path d="M250.899 463.46C238.665 425.23 238.665 390.058 250.899 351.828L154.559 276.896C119.388 347.242 108.684 446.638 154.559 538.392L250.899 463.46Z" fill="#FBBC02"/>
<path d="M250.899 351.828C284.544 246.313 428.289 185.145 524.628 275.367L608.735 192.79C489.457 78.1009 257.017 82.6872 154.56 276.896L250.899 351.828Z" fill="#EA4335"/>
</svg>
